<svg width="27" height="20" viewBox="0 0 27 20" fill="none" xmlns="http://www.w3.org/2000/svg">
<path d="M0 2.94118C0 1.31681 1.31681 0 2.94118 0H24.0588C25.6832 0 27 1.31681 27 2.94118V2.94118C27 4.56554 25.6832 5.88235 24.0588 5.88235H2.94118C1.31681 5.88235 0 4.56554 0 2.94118V2.94118Z" fill="#449284"/>
<path d="M0 17.0588C0 15.4345 1.31681 14.1176 2.94118 14.1176H24.0588C25.6832 14.1176 27 15.4345 27 17.0588V17.0588C27 18.6832 25.6832 20 24.0588 20H2.94118C1.31681 20 0 18.6832 0 17.0588V17.0588Z" fill="#449284"/>
<path d="M0 10C0 8.37563 1.31681 7.05882 2.94118 7.05882H24.0588C25.6832 7.05882 27 8.37563 27 10V10C27 11.6244 25.6832 12.9412 24.0588 12.9412H2.94118C1.31681 12.9412 0 11.6244 0 10V10Z" fill="#449284"/>
</svg>
