<svg width="31" height="31" viewBox="0 0 31 31" fill="none" xmlns="http://www.w3.org/2000/svg">
<path d="M15.5 4.8172e-07C6.93931 4.8172e-07 0 6.99213 0 15.618C0 23.3253 5.5416 29.7235 12.8265 31V30.9463H12.8273V19.9268H9.08635V15.6172H12.8273V12.1772C12.8273 8.26298 15.3918 5.92468 18.9333 5.92468C20.629 5.92468 22.4482 6.20537 22.4482 6.20537V10.2327H20.4473C18.5223 10.2327 18.1727 11.4539 18.1727 12.689V15.6172H22.4482L21.7005 19.9268H18.1727V30.9463V31C25.4584 29.7235 31 23.3253 31 15.618C31 6.99213 24.0607 4.8172e-07 15.5 4.8172e-07Z" fill="white"/>
</svg>
